<?xml version="1.0" encoding="utf-8"?>
<!-- Generator: Adobe Illustrator 16.0.0, SVG Export Plug-In . SVG Version: 6.00 Build 0)  -->
<!DOCTYPE svg PUBLIC "-//W3C//DTD SVG 1.1//EN" "http://www.w3.org/Graphics/SVG/1.1/DTD/svg11.dtd">
<svg version="1.1" id="Layer_1" xmlns="http://www.w3.org/2000/svg" xmlns:xlink="http://www.w3.org/1999/xlink" x="0px" y="0px"
	 width="500px" height="500px" viewBox="0 0 500 500" enable-background="new 0 0 500 500" xml:space="preserve">
<path fill-rule="evenodd" clip-rule="evenodd" fill="#F2F2F2" d="M302.991,21.366c-2.446,0.062-4.883,0.263-7.319,0.392
	c-57.808,3.034-90.257,32.908-96.162,90.286c-2.556,24.815-2.608,49.887-3.908,77.186c-23.104,0-44.728,0-66.843,0
	c0,28.78,0,55.061,0,84.022c23.324,0,44.895,0,69.203,0c0,69.904,0,137.172,0,205.156c29.301,0,55.754,0,85.146,0
	c0-69.646,0-137.66,0-208.443c24.556,0,46.198,0,69.818,0c3.401-27.848,6.479-53.15,9.899-81.285c-27.825,0-52.726,0-79.059,0
	c0-21.041-0.22-39.611,0.057-58.176c0.306-20.992,12.316-31.102,32.277-32.009c16.015-0.731,32.104-0.148,47.508-0.148
	C376.374,26.234,370.928,19.68,302.991,21.366z"/>
</svg>
