<?xml version="1.0" encoding="utf-8"?>
<!-- Generator: Adobe Illustrator 16.0.0, SVG Export Plug-In . SVG Version: 6.00 Build 0)  -->
<!DOCTYPE svg PUBLIC "-//W3C//DTD SVG 1.1//EN" "http://www.w3.org/Graphics/SVG/1.1/DTD/svg11.dtd">
<svg version="1.1" id="Layer_1" xmlns="http://www.w3.org/2000/svg" xmlns:xlink="http://www.w3.org/1999/xlink" x="0px" y="0px"
	 width="500px" height="500px" viewBox="0 0 500 500" enable-background="new 0 0 500 500" xml:space="preserve">
<path fill-rule="evenodd" clip-rule="evenodd" fill="#F2F2F2" d="M454.187,95.055c-6.378-2.248-9.754-1.569-12.654-0.017
	c-23.816,12.739-44.129,13.214-69.345-3.274c-42.967-28.125-105.238-1.646-121.582,48.387c-5.025,15.385-5.36,32.306-8.041,49.803
	c-72.101-4.8-130.687-36.224-179.315-94.348c-20.338,45.282-12.264,82.143,19.932,118.987c-14.296-3.037-22.921-4.86-33.536-7.107
	c4.296,42.271,25.088,69.59,66.173,87.121c-14.13,1.476-22.366,2.341-33.086,3.461c14.715,36.428,40.902,54.264,79.649,60.252
	c-37.895,28.176-77.071,37.438-125.068,36.971c8.185,5.538,10.924,7.735,13.96,9.389c131.717,71.847,328.819,19.754,367.426-181.919
	c6.514-34.07,10.67-65.621,40.126-87.673c1.764-1.323,2.196-4.419,3.859-7.989c-12.926,2.79-24.063,5.199-36.776,7.947
	C436.545,120.008,445.366,107.532,454.187,95.055z"/>
</svg>
