<?xml version="1.0" encoding="utf-8"?>
<!-- Generator: Adobe Illustrator 16.0.0, SVG Export Plug-In . SVG Version: 6.00 Build 0)  -->
<!DOCTYPE svg PUBLIC "-//W3C//DTD SVG 1.1//EN" "http://www.w3.org/Graphics/SVG/1.1/DTD/svg11.dtd">
<svg version="1.1" id="Layer_1" xmlns="http://www.w3.org/2000/svg" xmlns:xlink="http://www.w3.org/1999/xlink" x="0px" y="0px"
	 width="500px" height="500px" viewBox="0 0 500 500" enable-background="new 0 0 500 500" xml:space="preserve">
<path fill-rule="evenodd" clip-rule="evenodd" fill="#F2F2F2" d="M399.745,38.345c-100.003-0.233-200.01-0.255-300.013,0.018
	c-44.445,0.124-61.781,17.451-61.865,61.345c-0.194,100.007-0.172,200.019-0.004,300.017c0.075,44.354,17.103,61.613,61.284,61.932
	c50.378,0.352,100.756,0.08,151.134,0.08c49.629,0,99.258,0.201,148.883-0.063c45.913-0.238,62.928-17.111,62.998-62.496
	c0.154-99.258,0.137-198.506,0.009-297.76C462.112,55.69,445.226,38.451,399.745,38.345z M372.539,88.608
	c39.486,0.018,39.486,0.018,39.464,41.854c-0.018,37.569-0.365,37.904-39.636,37.891c-40.87-0.014-40.87-0.014-40.835-43.683
	C331.559,88.595,331.559,88.595,372.539,88.608z M250.479,170.076c45.622,0.203,80.14,34.558,80.22,79.841
	c0.079,45.216-34.453,79.748-80.04,80.031c-45.82,0.281-80.586-33.387-81.295-78.727
	C168.637,205.022,203.781,169.869,250.479,170.076z M390.99,411.424c-93.889-0.186-187.782-0.105-281.675-0.027
	c-13.501,0.01-21.326-5.281-21.299-19.826c0.106-56.246,0.044-112.49,0.044-170.711c11.998,0,22.551,0,33.65,0
	c-8.988,58.344,9.517,105.209,57.462,137.439c44.414,29.85,92.297,31.059,137.813,2.293c50.586-31.959,70.699-79.291,60.649-140.213
	c11.024,0,21.188,0,34.368,0c0,15.926,0.005,31.441,0,46.957c0,39.813-0.269,79.625,0.128,119.43
	C412.285,401.797,408.34,411.449,390.99,411.424z"/>
</svg>
