<?xml version="1.0" encoding="utf-8"?>
<!-- Generator: Adobe Illustrator 16.0.0, SVG Export Plug-In . SVG Version: 6.00 Build 0)  -->
<!DOCTYPE svg PUBLIC "-//W3C//DTD SVG 1.1//EN" "http://www.w3.org/Graphics/SVG/1.1/DTD/svg11.dtd">
<svg version="1.1" id="Layer_1" xmlns="http://www.w3.org/2000/svg" xmlns:xlink="http://www.w3.org/1999/xlink" x="0px" y="0px"
	 width="500px" height="500px" viewBox="0 0 500 500" enable-background="new 0 0 500 500" xml:space="preserve">
<path fill-rule="evenodd" clip-rule="evenodd" fill="#F2F2F2" d="M392.918,105.405c-46.616-1.73-93.343-0.379-140.016-0.379
	c-0.036-1.438-0.063-2.876-0.09-4.318c-54.323,2.561-108.673,4.56-162.932,7.907c-27.882,1.721-43.349,19.282-48.507,45.712
	c-13.266,67.917-13.247,135.972-0.045,203.905c5.387,27.755,22.122,44.792,50.917,45.713c76.133,2.43,152.276,4.429,228.437,5.295
	c30.229,0.348,60.714-1.04,90.705-4.71c33.342-4.091,52.706-20.807,54.387-53.803c3.132-61.16,4.107-122.754,0.456-183.837
	C463.656,124.048,440.631,107.176,392.918,105.405z M208.477,311.389c0-39.998,0-77.413,0-118.958
	c38.245,19.935,74.482,38.825,115.401,60.148C284.21,272.797,247.727,291.394,208.477,311.389z"/>
</svg>
