<?xml version="1.0" encoding="utf-8"?>
<!-- Generator: Adobe Illustrator 16.0.0, SVG Export Plug-In . SVG Version: 6.00 Build 0)  -->
<!DOCTYPE svg PUBLIC "-//W3C//DTD SVG 1.1//EN" "http://www.w3.org/Graphics/SVG/1.1/DTD/svg11.dtd">
<svg version="1.1" id="Layer_1" xmlns="http://www.w3.org/2000/svg" xmlns:xlink="http://www.w3.org/1999/xlink" x="0px" y="0px"
	 width="312px" height="312px" viewBox="0 0 312 312" enable-background="new 0 0 312 312" xml:space="preserve">
<circle fill="#009245" cx="155.949" cy="151.449" r="82.949"/>
<linearGradient id="SVGID_1_" gradientUnits="userSpaceOnUse" x1="383.8577" y1="-187.188" x2="326.0345" y2="-128.7503" gradientTransform="matrix(1 0 0 -1 -172.5996 17.1602)">
	<stop  offset="0" style="stop-color:#000000;stop-opacity:0"/>
	<stop  offset="1" style="stop-color:#000000;stop-opacity:0.3"/>
</linearGradient>
<path fill="url(#SVGID_1_)" d="M130.697,185.313l39.117,47.932c0,0,34.187-3.243,58.503-41.235
	c4.814-7.522,10.581-30.508,10.581-30.508l-69.812-52.421l-18.336,6.171l-15.593,18.092l42.177,34.995L130.697,185.313z"/>
<linearGradient id="SVGID_2_" gradientUnits="userSpaceOnUse" x1="293.2971" y1="-169.1523" x2="293.2971" y2="-169.1523" gradientTransform="matrix(1 0 0 -1 -172.5996 17.1602)">
	<stop  offset="0" style="stop-color:#FFFFFF;stop-opacity:0"/>
	<stop  offset="1" style="stop-color:#000000;stop-opacity:0.1"/>
</linearGradient>
<path fill="url(#SVGID_2_)" d="M120.698,186.313"/>
<g>
	<path fill="#FFFFFF" d="M177.532,140.327c4.07,1.023,4.073,1.023,4.073,5.001c0.001,12.572-0.053,25.146,0.044,37.717
		c0.02,2.452-0.728,3.284-3.228,3.27c-14.983-0.094-29.967-0.09-44.951-0.004c-2.404,0.015-3.126-0.853-3.114-3.152
		c0.07-13.09,0.083-26.18-0.008-39.267c-0.018-2.568,1.036-3.211,3.39-3.186c10.419,0.113,20.839,0.043,31.257,0.175
		c2.265,0.029,3.491-0.601,3.971-2.927c0.538-2.607,1.481-5.127,2.112-7.719c1.217-5.01-0.693-9.835-5.244-12.019
		c-2.57-1.233-5.533-2.028-8.376-2.236c-5.175-0.379-9.113,2.654-10.65,7.632c-1.041,3.372-2.005,6.771-2.861,10.194
		c-0.44,1.766-1.316,2.188-2.979,1.684c-7.439-2.258-6.479-0.809-4.667-7.825c0.624-2.417,1.269-4.834,2.042-7.206
		c3.334-10.236,13.632-15.934,24.143-13.597c7.311,1.626,13.12,5.02,16.152,12.242c1.95,4.643,2.125,9.346,0.832,14.154
		C178.847,135.563,178.207,137.865,177.532,140.327z M151.314,172.375c1.979,0,3.253-0.001,4.527,0
		c6.117,0.004,5.428,0.245,3.983-5.256c-0.418-1.592-0.88-2.936,0.694-4.41c2.432-2.275,2.262-5.77-0.005-8.073
		c-2.308-2.345-5.985-2.413-8.368-0.155c-2.452,2.324-2.602,5.708-0.113,8.263c1.14,1.17,1.358,2.222,0.897,3.68
		C152.37,168.199,151.947,170.018,151.314,172.375z"/>
</g>
</svg>
