<?xml version="1.0" encoding="utf-8"?>
<!-- Generator: Adobe Illustrator 16.0.0, SVG Export Plug-In . SVG Version: 6.00 Build 0)  -->
<!DOCTYPE svg PUBLIC "-//W3C//DTD SVG 1.1 Tiny//EN" "http://www.w3.org/Graphics/SVG/1.1/DTD/svg11-tiny.dtd">
<svg version="1.1" baseProfile="tiny" id="Layer_1" xmlns="http://www.w3.org/2000/svg" xmlns:xlink="http://www.w3.org/1999/xlink"
	 x="0px" y="0px" width="1121.385px" height="152px" viewBox="0 0 1121.385 152" xml:space="preserve">
<g>
	<path fill="#F2F2F2" d="M137.997,73.147c0,4.751-1.114,8.719-3.341,11.888c-2.49,3.66-6.001,5.492-10.533,5.492
		c-4.981,0-9.758-2.302-14.326-6.907c-3.66,4.605-7.662,6.907-12.003,6.907c-3.511,0-7.343-1.357-11.496-4.077
		c-0.112,8.004-2.303,14.687-6.568,20.048c-4.72,5.848-10.948,8.776-18.686,8.776H45.528c-7.246,0-13.287-2.605-18.119-7.815
		c-4.72-5.059-7.08-11.246-7.08-18.576V74.424h9.967v14.95c0,4.803,1.548,8.656,4.644,11.569c2.981,2.799,6.889,4.197,11.721,4.197
		h13.25c4.644,0,8.484-1.467,11.522-4.396s4.558-6.72,4.558-11.371V64.23h10.194v8.405c0,2.339,0.88,4.281,2.642,5.832
		c1.762,1.551,3.837,2.323,6.223,2.323c4.696,0,7.046-2.114,7.046-6.344V64.23h9.966v8.291c0,2.417,0.841,4.396,2.519,5.946
		c1.681,1.551,3.746,2.323,6.203,2.323c4.756,0,7.134-2.114,7.134-6.344V64.23h10.079V73.147z"/>
	<path fill="#F2F2F2" d="M147.425,63.286v32.62c0,4.715-2.021,8.438-6.059,11.152c-3.362,2.217-7.344,3.369-11.928,3.485v10.501
		h2.981c7.398,0,13.551-2.772,18.458-8.327c4.681-5.32,7.022-11.716,7.022-19.191v-30.24H147.425z"/>
	<path fill="#F2F2F2" d="M202.927,85.141c-0.151-9.717-1.018-16.542-2.603-20.477c-2.757-6.732-8.194-10.097-16.31-10.097
		c-5.662,0-9.682,1.018-12.06,3.06c-4.114,3.438-6.171,9.429-6.171,17.97c0,7.82,2.584,13.24,7.755,16.269
		c3.965,2.302,10.155,3.456,18.573,3.456c-0.188,4.798-1.887,8.593-5.096,11.392c-3.208,2.799-7.228,4.197-12.06,4.197h-2.573
		v10.134h4.27c7.513,0,13.77-2.428,18.771-7.277c5.001-4.851,7.502-11.011,7.502-18.487h6.74V85.141H202.927z M192.452,85.141
		c-5.284,0-8.889-0.334-10.815-1.014c-3.587-1.211-5.377-3.968-5.377-8.27c0-3.662,0.394-6.286,1.188-7.87
		c1.133-2.19,3.321-3.287,6.568-3.287c2.72,0,4.85,1.154,6.401,3.456c1.357,2.039,2.036,4.472,2.036,7.304V85.141z"/>
	<path fill="#F2F2F2" d="M252.476,76.14c0,5.853-1.454,10.646-4.36,14.384c-3.171,4.113-7.606,6.171-13.308,6.171
		c-4.341,0-8.173-1.279-11.494-3.848c-3.284,1.43-9.042,2.244-17.271,2.433V85.141c5.774,0,9.152-0.564,10.137-1.702
		c0.3-0.376,0.509-2.986,0.621-7.826c0.339-14.031,6.438-21.045,18.292-21.045c5.662,0,10.079,2.263,13.248,6.795
		C251.098,65.325,252.476,70.25,252.476,76.14z M243.585,75.576c0-7.364-2.926-11.045-8.776-11.045
		c-5.965,0-8.946,3.814-8.946,11.442c0,7.059,2.981,10.588,8.946,10.588C240.659,86.561,243.585,82.896,243.585,75.576z"/>
	<path fill="#F2F2F2" d="M282.147,24.328h-25.538c-1.133,0-3.114,0.17-5.944,0.512c-1.587,0.188-2.738,0.564-3.454,1.13
		c-0.908,0.718-2.078,2.605-3.511,5.665l-9.23-3.626c2.454-5.247,4.644-8.643,6.568-10.191c2.302-1.812,6.758-2.963,13.363-3.454
		c2.002-0.151,6.852-0.227,14.553-0.227c2.869,0,7.268,0.055,13.193,0.169V24.328z M268.218,95.279h-9.967V29.935h9.967V95.279z"/>
	<path fill="#F2F2F2" d="M316.18,64.191c-2.605-6.492-7.776-9.739-15.517-9.739c-5.813,0-9.964,1.06-12.457,3.174
		c-4.039,3.438-6.059,9.429-6.059,17.97c0,7.857,2.566,13.303,7.701,16.32c3.851,2.266,10.024,3.404,18.516,3.404
		c-0.188,4.798-1.867,8.593-5.039,11.392c-3.171,2.799-7.173,4.197-12.005,4.197h-0.937v10.134h2.578
		c6.834,0,12.807-2.375,17.923-7.137c5.114-4.756,7.672-10.53,7.672-17.323V83.783C318.558,74.762,317.764,68.232,316.18,64.191z
		 M308.364,85.088c-5.208,0-8.74-0.345-10.588-1.023c-3.436-1.211-5.153-3.973-5.153-8.29c0-3.671,0.397-6.302,1.19-7.892
		c1.13-2.195,3.32-3.294,6.568-3.294c5.323,0,7.983,3.331,7.983,9.996V85.088z"/>
	<path fill="#F2F2F2" d="M395.859,71.177c0,5.138-1.726,9.252-5.182,12.348c-3.454,3.096-7.766,4.642-12.938,4.642
		c-5.247,0-9.512-1.791-12.796-5.378c-3.211-3.477-4.813-7.873-4.813-13.193V57.135c-1.177-0.073-1.879-0.112-2.106-0.112
		c-2.655,0-4.884,1.039-6.686,3.114c-1.804,2.078-2.705,4.435-2.705,7.082v46.429h-9.964V68.462c0-6.531,1.715-11.666,5.153-15.401
		c3.548-3.926,8.568-5.889,15.063-5.889h20.667c6.795,0,11.418,2.472,13.872,7.417C395.047,57.95,395.859,63.479,395.859,71.177z
		 M385.892,68.974c0-5.477-0.545-8.724-1.642-9.742c-1.245-1.169-6.001-1.869-14.269-2.096v14.157c0,1.963,0.942,3.587,2.833,4.871
		c1.697,1.169,3.566,1.754,5.604,1.754C383.402,77.917,385.892,74.936,385.892,68.974z"/>
	<path fill="#F2F2F2" d="M422.916,95.279c-8.606,0-14.666-1.66-18.176-4.98c-2.342-2.151-3.511-5.681-3.511-10.588V31.52h10.194
		v43.712c0,4.72,0.791,7.611,2.378,8.666c0.981,0.643,4.02,1.039,9.116,1.19V95.279z"/>
	<path fill="#F2F2F2" d="M434.278,84.826c-2.801,0.21-7.996,0.314-15.609,0.314v10.139h15.609V84.826z"/>
	<path fill="#F2F2F2" d="M505.486,77.272V63.286h-10.363v14.023c0,2.914-0.538,4.95-1.613,6.104
		c-1.076,1.154-3.031,1.729-5.86,1.729h-45.263v10.139h48.265c3.093,0,6.377-1.321,9.852-3.963
		c2.718,2.642,8.116,3.963,16.195,3.963V85.088C509.222,85.088,505.486,82.482,505.486,77.272z"/>
	<path fill="#F2F2F2" d="M556.674,95.279H553.5c-5.773,0-10.17-1.321-13.191-3.963c-3.396,2.642-6.643,3.963-9.738,3.963h-16.76
		V85.141c10.531,0,16.457-0.24,17.779-0.731c2.264-0.799,3.396-3.843,3.396-9.146c0-1.321,0-3.318,0-5.986c0-2.668,0-4.665,0-5.991
		h10.363v14.023c0,3.331,1.133,5.545,3.398,6.642c1.357,0.647,4,1.044,7.926,1.19V95.279z"/>
	<rect x="552.654" y="85.141" fill="#F2F2F2" width="32.73" height="10.139"/>
	<path fill="#F2F2F2" d="M703.002,74.219v21.687c0,4.715-2.037,8.438-6.119,11.152c-1.864,1.242-3.947,2.135-6.213,2.715v11.016
		c6.223-0.605,11.527-3.189,15.788-8.009c4.678-5.325,7.017-11.747,7.017-19.254V74.219H703.002z"/>
	<path fill="#F2F2F2" d="M783.586,95.279c-4.188,0.036-7.299-0.136-9.335-0.512c-1.744-0.715-3.498-1.869-5.273-3.451
		c-3.247,2.642-6.474,3.963-9.68,3.963h-21.975V85.141h18.915c2.83,0,4.793-0.574,5.89-1.729c1.096-1.153,1.639-3.189,1.639-6.104
		v-6.426h10.254v6.426c0,3.373,0.773,5.587,2.318,6.642c1.211,0.793,3.623,1.19,7.247,1.19V95.279z"/>
	<path fill="#F2F2F2" d="M889.48,95.279c-0.262,0-22.549,0-22.805-0.011c-8.275-0.146-14.148-2.61-17.626-7.408
		c-2,4.944-6.683,7.419-14.044,7.419H781.69V85.141h53.487c2.679,0,4.021-1.755,4.021-5.269c0-1.206-0.376-4.057-1.133-4.85H783.56
		l-1.869-14.992l37.48-13.546l1.409,9.432l-26.777,9.228l43.108-0.058c15.479,0,10.134,10.249,20.686,17.276
		c2.428,1.618,5.388,2.506,8.844,2.735c0.334,0.021,22.7,0.031,23.04,0.042V95.279z"/>
	<path fill="#F2F2F2" d="M990.311,95.279c-8.609,0-14.671-1.66-18.179-4.98c-2.339-2.151-3.509-5.681-3.509-10.588V39.134h10.191
		v36.097c0,4.72,0.793,7.611,2.375,8.666c0.981,0.643,4.021,1.039,9.121,1.19V95.279z"/>
	<path fill="#F2F2F2" d="M1032.322,76.14c0,5.853-1.451,10.646-4.359,14.384c-3.169,4.113-7.606,6.171-13.303,6.171
		c-4.344,0-8.176-1.279-11.496-3.848c-3.283,1.43-9.042,2.244-17.271,2.433V85.141c5.774,0,9.152-0.564,10.134-1.702
		c0.303-0.376,0.512-2.986,0.627-7.826c0.339-14.031,6.432-21.045,18.288-21.045c5.659,0,10.076,2.263,13.251,6.795
		C1030.944,65.325,1032.322,70.25,1032.322,76.14z M1023.437,75.576c0-7.364-2.929-11.045-8.776-11.045
		c-5.967,0-8.948,3.814-8.948,11.442c0,7.059,2.981,10.588,8.948,10.588C1020.508,86.561,1023.437,82.896,1023.437,75.576z"/>
	<path fill="#F2F2F2" d="M1111.105,95.279c-0.517,0-52.897,0.005-53.446,0.011c-8.541,0.094-20.09,0.381-20.09-15.579V39.134h10.191
		v36.097c0,10.854,5.315,9.981,10.118,9.856c0.465-0.01,52.772-0.016,53.227,0V95.279z"/>
	<path fill="#F2F2F2" d="M748.59,85.083c-4.97,0.005-8.332,0.005-8.447,0.005c-4.803,0.125-10.118,0.997-10.118-9.856V39.134h-10.19
		v40.577c0,15.96,11.548,15.673,20.09,15.579c0.172,0,4.28,0,9.888-0.006C749.342,91.891,748.966,88.487,748.59,85.083z"/>
</g>
<rect x="951.385" y="63" fill="#F2F2F2" width="11" height="10"/>
<rect x="861.385" y="105" fill="#F2F2F2" width="10" height="11"/>
<rect x="874.385" y="105" fill="#F2F2F2" width="10" height="11"/>
<rect x="456.385" y="47" fill="#F2F2F2" width="10" height="11"/>
<rect x="421.385" y="47" fill="#F2F2F2" width="10" height="11"/>
<rect x="469.385" y="47" fill="#F2F2F2" width="10" height="11"/>
<rect x="732.385" y="105" fill="#F2F2F2" width="11" height="11"/>
<rect x="745.385" y="105" fill="#F2F2F2" width="10" height="11"/>
<rect x="739.385" y="118" fill="#F2F2F2" width="10" height="10"/>
<rect x="652.385" y="104" fill="#F2F2F2" width="11" height="11"/>
<rect x="665.385" y="104" fill="#F2F2F2" width="10" height="11"/>
<rect x="659.385" y="117" fill="#F2F2F2" width="10" height="10"/>
<rect x="519.385" y="109" fill="#F2F2F2" width="10" height="10"/>
<rect x="556.385" y="38" fill="#F2F2F2" width="11" height="11"/>
<rect x="569.385" y="38" fill="#F2F2F2" width="10" height="11"/>
<rect x="562.385" y="25" fill="#F2F2F2" width="10" height="10"/>
<rect x="92.385" y="39" fill="#F2F2F2" width="11" height="11"/>
<rect x="105.385" y="39" fill="#F2F2F2" width="10" height="11"/>
<rect x="98.385" y="26" fill="#F2F2F2" width="10" height="10"/>
<rect x="148.385" y="27" fill="#F2F2F2" width="10" height="10"/>
<g>
	<path fill="#F2F2F2" d="M942.669,85.005c-2.631-0.24-4.26-0.741-5.522-1.504c-0.752-0.449-2.311-2.094-4.994-4.929l-19.748-21.75
		l-6.812,6.907l2.908,3.284c-7.889,7.894-11.58,14.78-11.58,20.669c0,5.623,4.464,22.372,24.464,14.028V91.85
		c-9,4.845-14.256-0.847-14.256-3.488c0-2.605,0.874-5.189,2.878-7.758c0.789-1.019,2.71-3.023,5.88-5.999
		c0,0,17.819,18.314,18.837,18.921c1.838,1.055,4.015,1.634,7.815,1.738c0.407,0.011,20.846,0.016,20.846,0.016V85.088
		C963.385,85.063,943.035,85.036,942.669,85.005z"/>
</g>
<path fill="#F2F2F2" d="M672.178,53h-25.144l1.42,11h17.834c4.679,0,7.686,0.501,9.001,0.799c3.06,0.749,5.252,2.682,6.578,5.444
	c-5.513,3.139-9.669,5.549-12.467,7.052c-4.49,2.381-6.944,3.709-7.361,3.896c-4.72,2.234-12.363,3.51-22.931,3.803
	c4.214,0.025,3.248,0.049-0.96,0.022c-0.616,0-0.512-0.006-0.554-0.011c-2.632-0.24-4.088-0.741-5.352-1.504
	c-0.752-0.449-2.224-2.095-4.907-4.93l-19.709-21.75l-6.787,6.907l2.918,3.284c-7.889,7.894-11.712,14.78-11.712,20.669
	c0,5.623,4.339,22.372,24.339,14.028V91.85c-9,4.845-14.121-0.847-14.121-3.488c0-2.605,0.94-5.189,2.945-7.758
	c0.788-1.019,2.744-3.023,5.913-5.999c0,0,16.87,18.314,17.888,18.921c1.117,0.642,3.193,1.086,3.193,1.373
	c5.346,0.183,3.234,0.318,4.686,0.359c7.074-0.047,12.502-0.219,15.044-0.543c2.214-0.281,4.854-0.777,6.995-1.378
	c3.671-1.033,7.246-2.829,10.702-4.813l23.327-13.736C692.957,60.785,686.033,53,672.178,53z"/>
</svg>
