<?xml version="1.0" encoding="utf-8"?>
<!-- Generator: Adobe Illustrator 16.0.0, SVG Export Plug-In . SVG Version: 6.00 Build 0)  -->
<!DOCTYPE svg PUBLIC "-//W3C//DTD SVG 1.1//EN" "http://www.w3.org/Graphics/SVG/1.1/DTD/svg11.dtd">
<svg version="1.1" id="Layer_1" xmlns="http://www.w3.org/2000/svg" xmlns:xlink="http://www.w3.org/1999/xlink" x="0px" y="0px"
	 width="312px" height="312px" viewBox="0 0 312 312" enable-background="new 0 0 312 312" xml:space="preserve">
<circle fill-rule="evenodd" clip-rule="evenodd" fill="#F7931E" cx="155.949" cy="151.449" r="82.949"/>
<linearGradient id="SVGID_1_" gradientUnits="userSpaceOnUse" x1="273.9541" y1="266.0039" x2="183.7722" y2="174.8635">
	<stop  offset="0" style="stop-color:#FFFFFF;stop-opacity:0"/>
	<stop  offset="1" style="stop-color:#000000;stop-opacity:0.05"/>
</linearGradient>
<polygon fill-rule="evenodd" clip-rule="evenodd" fill="url(#SVGID_1_)" points="120.697,185.313 206.667,345.334 338,183.398 
	201.744,119.896 172.938,151.449 174.25,186.313 "/>
<g>
	<path fill-rule="evenodd" clip-rule="evenodd" fill="#FFFFFF" d="M171.616,123.561c0-1.574-0.004-3.148,0.001-4.722
		c0.004-1.18-0.455-1.904-1.752-1.902c-9.639,0.015-19.278,0.022-28.918,0.037c-0.108,0-0.218,0.065-0.627,0.197
		c0,1.693,0,3.489,0,5.284c0,1.176,0.011,2.351-0.002,3.527c-0.049,4.375-3.004,7.412-7.402,7.516
		c-2.816,0.066-5.635,0.012-8.734,0.012c0,0.721,0,1.338,0,1.955c0,14.813-0.001,29.625,0.001,44.437
		c0,2.548,0.316,2.869,2.811,2.869c13.989,0.002,27.979,0.003,41.968,0c2.378-0.001,2.653-0.274,2.654-2.609
		c0.004-6.172-0.036-12.344,0.047-18.515c0.011-0.823,0.472-1.777,1.015-2.43c1.227-1.48,2.635-2.811,3.971-4.202
		c0.152,0.06,0.305,0.12,0.457,0.179c0.037,0.595,0.105,1.191,0.106,1.786c0.007,7.817,0.02,15.636-0.001,23.453
		c-0.014,5.161-2.785,7.901-7.99,7.904c-14.225,0.012-28.449,0.013-42.674,0c-4.971-0.005-7.594-2.492-7.921-7.446
		c-0.03-0.468-0.04-0.94-0.04-1.41c-0.002-16.634,0.008-33.268-0.022-49.903c-0.002-1.257,0.336-2.166,1.268-3.076
		c4.792-4.683,9.474-9.479,14.272-14.154c0.629-0.613,1.71-1.066,2.585-1.072c10.933-0.072,21.865-0.059,32.798-0.04
		c3.682,0.006,6.43,1.933,7.422,5.101c0.391,1.251,0.361,2.315-0.749,3.331c-1.417,1.297-2.639,2.807-3.945,4.226
		C172.016,123.781,171.815,123.671,171.616,123.561z"/>
	<path fill-rule="evenodd" clip-rule="evenodd" fill="#FFFFFF" d="M152.167,156.89c0.832,0.801,1.544,1.486,2.462,2.37
		c10.603-10.575,21.223-21.17,32.293-32.211c1.317,1.533,2.511,2.901,3.682,4.288c1.03,1.22,0.351,2.146-0.548,3.042
		c-3.329,3.321-6.64,6.661-9.978,9.974c-6.799,6.749-13.572,13.523-20.443,20.197c-1.486,1.443-3.232,2.707-5.051,3.703
		c-4.012,2.198-8.164,4.14-12.223,6.256c-1.213,0.633-2.247,0.632-3.188-0.341c-0.912-0.945-0.753-1.939-0.142-3.049
		c2.577-4.677,5.081-9.394,7.639-14.082c0.274-0.503,0.69-0.947,1.103-1.358c10.521-10.508,21.049-21.01,31.585-31.504
		c0.409-0.407,0.899-0.986,1.376-1.01c0.722-0.036,1.684,0.138,2.133,0.612c0.381,0.403,0.345,1.397,0.184,2.053
		c-0.124,0.501-0.711,0.903-1.125,1.316c-9.612,9.589-19.229,19.173-28.843,28.76C152.795,156.193,152.527,156.501,152.167,156.89z"
		/>
	<path fill-rule="evenodd" clip-rule="evenodd" fill="#FFFFFF" d="M193.817,129.834c-0.552-0.349-1.103-0.58-1.5-0.968
		c-2.391-2.342-4.737-4.729-7.119-7.081c-0.976-0.964-1.065-1.875-0.055-2.872c2.131-2.104,4.257-4.214,6.354-6.35
		c0.991-1.009,1.944-0.967,2.898-0.02c2.459,2.44,4.906,4.893,7.348,7.352c0.896,0.902,0.95,1.836,0.019,2.767
		c-2.118,2.117-4.218,4.253-6.369,6.336C195.005,129.375,194.405,129.532,193.817,129.834z"/>
</g>
<linearGradient id="SVGID_2_" gradientUnits="userSpaceOnUse" x1="120.6982" y1="186.3135" x2="120.6982" y2="186.3135">
	<stop  offset="0" style="stop-color:#FFFFFF;stop-opacity:0"/>
	<stop  offset="1" style="stop-color:#000000;stop-opacity:0.1"/>
</linearGradient>
<path fill-rule="evenodd" clip-rule="evenodd" fill="url(#SVGID_2_)" d="M120.698,186.313"/>
</svg>
