<?xml version="1.0" encoding="utf-8"?>
<!-- Generator: Adobe Illustrator 16.0.0, SVG Export Plug-In . SVG Version: 6.00 Build 0)  -->
<!DOCTYPE svg PUBLIC "-//W3C//DTD SVG 1.1//EN" "http://www.w3.org/Graphics/SVG/1.1/DTD/svg11.dtd">
<svg version="1.1" id="Layer_1" xmlns="http://www.w3.org/2000/svg" xmlns:xlink="http://www.w3.org/1999/xlink" x="0px" y="0px"
	 width="3201.196px" height="890px" viewBox="0 0 3201.196 890" enable-background="new 0 0 3201.196 890" xml:space="preserve">
<path opacity="0.75" fill="#F07954" d="M2732.249,661c-246-229,0-457,0-457S2978.249,432,2732.249,661z"/>
<path opacity="0.75" fill="#F6A84C" d="M2732.249,661c-96.95-321.804,230.457-394.638,230.457-394.638S3060.16,587.303,2732.249,661
	z"/>
<path opacity="0.75" fill="#F8BC65" d="M2732.249,661c78.56-326.78,398.018-224.57,398.018-224.57S3052.577,762.719,2732.249,661z"
	/>
<path opacity="0.75" fill="#C72C37" d="M2732.249,661c-321.773,97.052-394.711-230.332-394.711-230.332
	S2658.448,333.112,2732.249,661z"/>
<path opacity="0.75" fill="#EB645B" d="M2732.249,661c-326.805-78.456-224.695-397.946-224.695-397.946
	S2833.866,340.64,2732.249,661z"/>
<g>
	<polygon fill="#F4F4F4" points="2046.91,281.906 2044.973,255.762 1806.751,341.32 1809.814,367.458 	"/>
	<path fill="#F4F4F4" d="M2208.286,441.567l-313.679-0.552l178.654-52.837l-9.441-67.967l-250.66,90.17l12.815,96.951h347.117
		c8.293,8.806,12.439,17.857,12.439,27.164c0,17.104-12.945,25.654-38.823,25.654h-308.706v-0.377
		c-35.433-1.254-56.67-3.262-63.702-6.03c-14.577-6.03-21.862-21.357-21.862-45.985v-243.5h-67.848v229.93
		c0,24.376-2.392,40.585-7.163,48.623c-7.038,11.815-21.361,17.717-42.969,17.717c-8.886,0-17.165-0.057-24.878-0.168v-0.586
		c-31.663-1.755-49.886-3.77-54.656-6.03c-16.338-7.539-24.501-19.223-24.501-35.056v-37.782h-67.094v46.452
		c0,28.146-15.708,42.216-47.117,42.216c-16.084,0-29.654-5.147-40.708-15.453c-11.814-10.554-17.716-23.746-17.716-39.579v-33.636
		h-66.34v46.452c0,28.146-15.513,42.216-46.528,42.216c-15.891,0-29.637-5.087-41.239-15.266
		c-11.602-10.177-17.397-23.181-17.397-39.013v-34.39h-66.34v20.066c0,24.631-6.408,41.086-19.223,49.379
		c-9.801,6.285-27.14,9.423-52.017,9.423h-23.37c-33.924-1.001-54.155-3.639-60.687-7.916c-10.553-7.032-15.832-26.255-15.832-57.67
		V274.813h-67.847v249.151c0,32.672,7.786,56.165,23.37,70.488c18.502,17.51,47.681,28.056,87.448,31.702v1.468
		c8.262,0,16.011-0.044,23.269-0.127c3.365,0.083,6.789,0.127,10.279,0.127v-0.282c25.115-0.462,43.358-1.497,54.654-3.111
		c35.679-5.023,60.934-17.208,75.765-36.563c23.87,31.663,54.148,47.495,90.84,47.495c39.449,0,72.372-14.947,98.757-44.855
		c30.402,29.908,61.44,44.855,93.103,44.855c31.408,0,57.542-14.57,78.401-43.725c9.047,16.085,22.364,26.515,39.956,31.285
		c5.816,1.83,15.508,3.162,29.023,4.001v0.899c7.617,0,14.701-0.02,21.372-0.054c0.792,0.02,1.566,0.039,2.376,0.054v-0.065
		c36.57-0.209,58.468-0.941,65.585-2.195c13.064-2.511,27.764-10.556,44.102-24.125c20.034,16.309,49.697,25.041,88.957,26.23v0.155
		h9.423h20.354h308.706c29.648,0,54.403-7.408,74.256-22.239c22.363-16.326,33.546-38.942,33.546-67.837
		C2254.51,514.183,2244.605,450.82,2208.286,441.567z"/>
</g>
<g>
	<path fill="#F4F4F4" d="M836.725,540.962c0.028-0.183,0.067-0.359,0.095-0.542h-0.122l-3.535-72.301
		c-2.769-53.271-22.116-91.221-58.047-113.836c-22.37-14.323-46.994-21.483-73.88-21.483c-32.923,0-59.685,10.118-80.287,30.343
		c-20.607,20.23-30.908,46.807-30.908,79.723c0,47.746,18.716,78.531,56.163,92.349c42.233,3.818,80.217,5.916,114.07,6.334
		c-5.944,12.376-16.396,18.604-31.416,18.604H627.354v-0.377c-49.754,0-74.632-17.34-74.632-52.016V484.64h-68.979v23.359
		c0,19.4-3.582,32.946-10.743,40.627c-7.162,7.685-20.166,11.525-39.013,11.525H153.087c-0.459,22.497-1.609,44.984-3.117,67.472
		h303.996c20.601,0,42.464-8.794,65.585-26.386c15.278,14.855,43.332,23.41,84.057,25.722v0.664h124.496
		c29.401,0,55.28-10.301,77.648-30.909c16.813-15.891,26.996-33.833,30.63-53.805h0.438L836.725,540.962z M669.951,474.132
		c-11.308-4.548-16.963-16.413-16.963-35.607c0-23.994,14.948-35.994,44.855-35.994c40.709,0,61.941,25.011,63.702,75.012h-49.379
		C688.797,477.294,674.721,476.159,669.951,474.132z"/>
</g>
<rect x="664.187" y="229.837" fill="#F4F4F4" width="68.843" height="68.842"/>
<rect x="369.455" y="445.789" fill="#F4F4F4" width="68.843" height="68.843"/>
<rect x="278.611" y="445.789" fill="#F4F4F4" width="68.843" height="68.843"/>
</svg>
