<?xml version="1.0" encoding="utf-8"?>
<!-- Generator: Adobe Illustrator 16.0.0, SVG Export Plug-In . SVG Version: 6.00 Build 0)  -->
<!DOCTYPE svg PUBLIC "-//W3C//DTD SVG 1.1//EN" "http://www.w3.org/Graphics/SVG/1.1/DTD/svg11.dtd">
<svg version="1.1" id="Layer_1" xmlns="http://www.w3.org/2000/svg" xmlns:xlink="http://www.w3.org/1999/xlink" x="0px" y="0px"
	 width="305px" height="90px" viewBox="0 0 305 90" enable-background="new 0 0 305 90" xml:space="preserve">
<g>
	<path fill="#F1F2F2" d="M38.552,50.016c0,1.405-0.258,2.632-0.773,3.678c-0.516,1.046-1.203,1.913-2.062,2.6
		c-0.859,0.688-1.835,1.195-2.928,1.523c-1.094,0.327-2.202,0.491-3.327,0.491c-1.156,0-2.28-0.18-3.373-0.538
		c-1.094-0.359-2.061-0.883-2.905-1.57c-0.843-0.687-1.522-1.546-2.038-2.576c-0.516-1.03-0.773-2.232-0.773-3.607v-7.056H8.147
		v7.291c0,2.998,0.609,5.73,1.827,8.198c1.218,2.467,2.826,4.592,4.825,6.372c1.999,1.78,4.279,3.154,6.84,4.122
		c2.561,0.968,5.169,1.452,7.824,1.452c2.654,0,5.254-0.484,7.8-1.452c2.545-0.968,4.817-2.342,6.817-4.122
		c1.998-1.78,3.607-3.905,4.825-6.372c1.218-2.468,1.827-5.2,1.827-8.198V28.624H38.552V50.016z"/>
	<polygon fill="#F1F2F2" points="34.383,26.328 25.669,17.661 16.955,26.328 25.669,34.995 	"/>
	<path fill="#F1F2F2" d="M127.869,38.513c-1.421-1.593-3.194-2.873-5.317-3.841c-2.124-0.968-4.591-1.452-7.402-1.452H95.239
		l13.633-15.789l-9.183-7.964L86.01,25.255c-0.094,0.093-0.204,0.21-0.328,0.351c-0.125,0.141-0.219,0.274-0.281,0.398
		c-1.188,1.343-2.265,2.741-3.233,4.193c-0.968,1.452-1.624,3.147-1.967,5.083c-0.032,0.219-0.047,0.453-0.047,0.703
		c0,0.25,0,0.485,0,0.703c0,1.468,0.281,2.764,0.843,3.888c0.562,1.125,1.335,2.062,2.319,2.811s2.132,1.304,3.443,1.663
		c1.312,0.359,2.701,0.492,4.169,0.398h24.034c0.874,0,1.647,0.14,2.319,0.421c0.671,0.281,1.226,0.648,1.664,1.101
		c0.437,0.453,0.773,0.968,1.007,1.546c0.234,0.578,0.352,1.164,0.352,1.757c0,0.594-0.11,1.164-0.328,1.71
		c-0.219,0.547-0.555,1.031-1.007,1.452c-0.453,0.422-1.015,0.758-1.687,1.007c-0.672,0.25-1.445,0.375-2.319,0.375H74.391
		c-0.75,0-1.483-0.117-2.202-0.352c-0.719-0.234-1.352-0.578-1.897-1.031c-0.547-0.452-0.992-1.007-1.335-1.663
		c-0.344-0.656-0.516-1.405-0.516-2.249V11.248H56.214V49.71c0,2.405,0.476,4.654,1.429,6.746c0.953,2.093,2.256,3.92,3.912,5.482
		c1.655,1.562,3.584,2.795,5.786,3.701c2.021,0.832,4.171,1.262,6.442,1.331v0.028h41.368c2.811,0,5.278-0.484,7.402-1.452
		c2.124-0.968,3.896-2.241,5.317-3.818c1.421-1.577,2.483-3.374,3.186-5.388s1.054-4.083,1.054-6.208
		c0-2.092-0.352-4.153-1.054-6.184C130.353,41.918,129.29,40.106,127.869,38.513z"/>
	<path fill="#F1F2F2" d="M96.879,7.968l-3.936-3.514L81.512,17.619c-0.656,0.781-1.296,1.539-1.921,2.272
		c-0.625,0.734-1.194,1.484-1.71,2.249c-0.515,0.766-0.953,1.585-1.312,2.459c-0.359,0.875-0.617,1.843-0.773,2.905
		c-0.188,1.531-0.063,2.968,0.375,4.31L96.879,7.968z"/>
	<polygon fill="#F1F2F2" points="191.964,18.837 183.204,10.123 174.49,18.837 183.204,27.551 	"/>
	<path fill="#F1F2F2" d="M236.002,49.71v-8.246c0-2.373-0.461-4.615-1.382-6.723c-0.922-2.108-2.171-3.943-3.748-5.505
		c-1.577-1.562-3.42-2.803-5.528-3.725c-2.107-0.921-4.35-1.382-6.723-1.382c-2.405,0-4.654,0.461-6.746,1.382
		c-2.093,0.922-3.928,2.163-5.505,3.725c-1.577,1.562-2.818,3.396-3.725,5.505c-0.906,2.108-1.358,4.35-1.358,6.723v8.105
		c0,0.968-0.18,1.788-0.539,2.459c-0.359,0.672-0.851,1.218-1.476,1.64c-0.625,0.422-1.358,0.719-2.201,0.89
		c-0.807,0.164-1.689,0.229-2.638,0.208c-0.529-0.047-1.051-0.134-1.556-0.302c-0.703-0.234-1.328-0.578-1.874-1.031
		c-0.547-0.452-0.992-1.007-1.335-1.663c-0.345-0.656-0.516-1.405-0.516-2.249V31.346h-12.228v18.177
		c0,0.843-0.172,1.593-0.516,2.249c-0.344,0.656-0.797,1.211-1.358,1.663c-0.563,0.453-1.195,0.797-1.897,1.031
		c-0.598,0.199-1.202,0.295-1.811,0.325c-0.997-0.062-1.949-0.325-2.852-0.817c-1.03-0.563-1.78-1.312-2.249-2.249l-10.541-25.486
		l-11.244,4.732c1.062,2.593,2.179,5.294,3.35,8.105s2.287,5.544,3.35,8.198v-0.046c0.78,1.999,1.171,3.498,1.171,4.497
		c0,1.156-0.383,1.96-1.147,2.413c-0.766,0.453-1.71,0.679-2.834,0.679H133.45v12.181h15.132c2.124,0,4.139-0.367,6.044-1.102
		c1.904-0.733,3.623-1.74,5.153-3.021c1.499,1.281,3.279,2.288,5.341,3.021c1.841,0.656,3.813,1.002,5.903,1.072v0.029
		c0.127,0,0.248-0.013,0.375-0.015c0.126,0.002,0.248,0.015,0.375,0.015v-0.029c2.088-0.07,4.053-0.417,5.88-1.072
		c2.046-0.733,3.834-1.74,5.364-3.021c1.53,1.281,3.318,2.288,5.364,3.021c1.829,0.657,3.81,1.003,5.927,1.072v0.029
		c0.118-0.003,0.228-0.012,0.345-0.016c0.136,0.002,0.268,0.016,0.405,0.016v-0.034c1.036-0.042,2.042-0.11,2.998-0.224
		c1.187-0.141,2.311-0.358,3.373-0.656c1.062-0.296,2.085-0.694,3.068-1.194c0.984-0.499,1.929-1.155,2.835-1.968
		c1.499,1.281,3.216,2.296,5.153,3.045c1.936,0.75,3.982,1.125,6.137,1.125c2.373,0,4.615-0.461,6.723-1.383
		c2.108-0.92,3.951-2.17,5.528-3.747s2.826-3.42,3.748-5.529C235.542,54.325,236.002,52.084,236.002,49.71z M223.775,49.57
		c0,0.937-0.148,1.75-0.444,2.436c-0.298,0.688-0.68,1.258-1.148,1.71c-0.468,0.453-1.015,0.781-1.64,0.984
		c-0.625,0.204-1.265,0.274-1.921,0.211c-0.655,0-1.296-0.125-1.921-0.375c-0.625-0.25-1.171-0.601-1.64-1.054
		c-0.468-0.452-0.851-1.007-1.147-1.663c-0.297-0.656-0.445-1.405-0.445-2.249v-7.917c0-0.843,0.148-1.6,0.445-2.272
		c0.297-0.671,0.68-1.233,1.147-1.687c0.469-0.452,1.015-0.804,1.64-1.054s1.266-0.39,1.921-0.422
		c0.656-0.031,1.296,0.055,1.921,0.258c0.625,0.204,1.172,0.531,1.64,0.984c0.469,0.453,0.851,1.03,1.148,1.733
		c0.296,0.703,0.444,1.522,0.444,2.459V49.57z"/>
	<polygon fill="#F1F2F2" points="259.03,14.494 250.961,6.424 242.978,14.494 250.961,22.477 	"/>
</g>
<g>
	<path fill="#F1F2F2" d="M251.675,25.629c2.061,2.092,3.964,4.379,5.713,6.862c1.748,2.482,3.177,5.082,4.285,7.798
		c1.108,2.715,1.819,5.511,2.131,8.383c0.312,2.873,0.062,5.745-0.75,8.618c-0.531,1.873-1.39,3.707-2.576,5.503
		c-1.188,1.795-2.592,3.52-4.215,5.176c-1.625,1.654-3.42,3.223-5.387,4.707c-1.967,1.482-3.989,2.825-6.065,4.028
		c-2.077,1.202-4.153,2.255-6.229,3.161s-4.035,1.624-5.877,2.155l-6.136-10.023c3.279-1.249,6.3-2.514,9.063-3.793
		c2.764-1.281,5.222-2.639,7.377-4.075c2.155-1.437,3.988-2.967,5.503-4.59c1.514-1.623,2.661-3.418,3.442-5.386
		c0.469-1.81,0.539-3.645,0.211-5.503c-0.328-1.857-0.921-3.66-1.779-5.409c-0.86-1.749-1.897-3.419-3.115-5.011
		s-2.466-3.06-3.747-4.402L251.675,25.629z"/>
	<path fill="#F1F2F2" d="M284.365,25.629c2.061,2.092,3.965,4.379,5.714,6.862c1.748,2.482,3.176,5.082,4.285,7.798
		c1.107,2.715,1.819,5.511,2.131,8.383c0.312,2.873,0.062,5.745-0.749,8.618c-0.532,1.873-1.39,3.707-2.576,5.503
		c-1.188,1.795-2.592,3.52-4.215,5.176c-1.624,1.654-3.419,3.223-5.386,4.707c-1.967,1.482-3.989,2.825-6.065,4.028
		c-2.077,1.202-4.153,2.255-6.229,3.161c-2.077,0.906-4.036,1.624-5.877,2.155l-6.136-10.023c3.279-1.249,6.3-2.514,9.063-3.793
		c2.763-1.281,5.222-2.639,7.376-4.075c2.155-1.437,3.989-2.967,5.504-4.59c1.514-1.623,2.662-3.418,3.442-5.386
		c0.468-1.81,0.538-3.645,0.211-5.503c-0.328-1.857-0.922-3.66-1.78-5.409c-0.859-1.749-1.896-3.419-3.115-5.011
		c-1.218-1.592-2.467-3.06-3.747-4.402L284.365,25.629z"/>
</g>
</svg>
