<?xml version="1.0" encoding="utf-8"?>
<!-- Generator: Adobe Illustrator 16.0.0, SVG Export Plug-In . SVG Version: 6.00 Build 0)  -->
<!DOCTYPE svg PUBLIC "-//W3C//DTD SVG 1.1//EN" "http://www.w3.org/Graphics/SVG/1.1/DTD/svg11.dtd">
<svg version="1.1" id="Layer_1" xmlns="http://www.w3.org/2000/svg" xmlns:xlink="http://www.w3.org/1999/xlink" x="0px" y="0px"
	 width="780.077px" height="130.098px" viewBox="0 0 780.077 130.098" enable-background="new 0 0 780.077 130.098"
	 xml:space="preserve">
<g>
	<path fill="#F2F2F2" d="M113.792,66.893c0.076,3.58,0.113,6.189,0.113,7.955c0,7.06-1.032,11.114-4.049,12.222
		C108.464,87.549,103,87.79,92,87.855v-0.06c-4-0.251-7.845-0.955-9.755-2.113c-1.006-0.603-3.533-2.791-7.103-6.563l-40.78-43.226
		l-9.187,9.203l3.817,4.375C18.48,59.985,13.211,69.162,13.211,77.007c0,7.495,2.43,13.681,7.31,18.558
		c4.876,4.879,11.059,7.318,18.554,7.318c11.416,0,19.688-5.431,24.817-16.294c8.097,7.494,13.016,11.643,14.374,12.446
		c1.802,1.035,3.735,1.718,7.735,2.066V102h21.87c5.683,0,11.156-2.601,14.979-7.177c3.621-4.327,6.151-9.718,6.151-15.553V59
		h-15.321C113.679,61,113.716,63.313,113.792,66.893z M48.312,86.399c-2.591,2.239-5.621,3.357-9.091,3.357
		c-3.571,0-6.538-1.094-8.901-3.282c-2.364-2.188-3.546-5.041-3.546-8.563c0-3.47,1.332-6.914,3.999-10.335
		c1.056-1.357,3.696-4.022,7.921-7.997l10.938,10.864c1.709,1.66,2.565,4.149,2.565,7.468
		C52.197,81.334,50.902,84.162,48.312,86.399z"/>
	<path fill="#F2F2F2" d="M236.827,47.134c-15.793,0-23.914,9.348-24.366,28.04c-0.152,6.45-0.428,9.529-0.831,10.032
		c-1.083,1.253-4.394,1.795-9.862,1.795h-33.137c-6.789,0-10.996-0.331-12.305-1.187c-2.11-1.407-3.326-4.857-3.326-11.144V17h-14
		v63.629c0,6.539,1.875,11.24,4.994,14.107c4.035,3.816,11.006,5.978,20.006,6.503V102h39v-0.853c7-0.452,14.196-1.45,17.781-3.017
		c4.425,3.418,9.707,5.129,15.491,5.129c7.593,0,13.592-2.74,17.817-8.222c3.872-4.979,5.852-11.366,5.852-19.161
		c0-7.846-1.814-14.409-5.484-19.689C250.234,50.151,244.371,47.134,236.827,47.134z M236.45,89.757
		c-7.947,0-11.919-4.702-11.919-14.107c0-10.159,3.972-15.239,11.919-15.239c7.794,0,11.693,4.903,11.693,14.711
		C248.143,84.879,244.244,89.757,236.45,89.757z"/>
	<path fill="#F2F2F2" d="M733.144,35.895l-10.185,9.203l8.901,9.204c-5.029-4.878-10.461-7.318-16.294-7.318
		c-6.488,0-11.795,2.075-15.918,6.224c-4.124,4.149-6.185,9.045-6.185,15.481c0,5.936,2.489,12.312,7.468,18.312h-13.805
		c-7.092,0-11.343-0.256-12.751-0.81c-2.917-1.207-4.376-3.876-4.376-8.805V15h-13v59.669c0,4.878-0.766,8.122-1.721,9.731
		c-1.41,2.365-4.276,3.546-8.601,3.546c-1.67,0-2.679-0.012-4.679-0.031V87.87c-11-0.251-17-3.73-17-10.437V59h-15
		c0,2,0,4.189,0,7.77s0,6.251,0,8.016c0,7.009-1.078,11.043-4.096,12.102C604.379,87.455,599,87.775,588,87.852v-0.056
		c-5-0.352-10.063-0.754-11.016-1.207C573.714,85.08,572,82.741,572,79.573V59h-13v22.308c0,5.633-3.087,8.449-9.375,8.449
		c-3.22,0-5.9-1.03-8.113-3.093c-2.365-2.112-3.512-4.753-3.512-7.921V59h-12v22.308c0,5.633-3.748,8.449-9.957,8.449
		c-3.18,0-6.584-1.019-8.906-3.056S503,82.062,503,78.894V59h-13v17.027c0,4.929-1.089,7.825-3.654,9.485
		C484.385,86.77,481.107,87,476.128,87h-4.979h-6.412h-28.969h-4.226h-31.155h-4.224h-31.156h-4.226h-31.155h-4.225h-30.854
		c-6.789,0-10.455-0.331-11.763-1.187C280.674,84.406,280,80.956,280,74.669V17h-15v63.629c0,6.539,1.375,11.24,4.494,14.107
		c4.034,3.816,10.506,5.978,19.506,6.503V102h36.402h4.225h31.155h4.226h31.156h4.224h31.155h4.226H472v-0.678
		c4-0.09,8.51-0.298,10.813-0.627c7.142-1.005,11.983-3.444,14.952-7.317c4.775,6.337,10.729,9.505,18.073,9.505
		c7.896,0,14.432-2.991,19.712-8.977c6.086,5.986,12.269,8.977,18.605,8.977c6.287,0,11.503-2.916,15.678-8.751
		c1.81,3.22,4.459,5.307,7.979,6.262c1.074,0.338,3.188,0.59,5.188,0.759V102h22.352c4.175,0,8.194-2.072,12.723-5.595
		c3.927,3.437,10.926,4.869,17.926,4.953V102c0,0,1.026,0,1.221,0c0.015,0,0.027,0,0.041,0H642v-0.642
		c7-0.045,11.277-0.189,12.68-0.437c2.614-0.502,5.451-2.112,8.72-4.828c4.158,3.386,9.601,5.126,18.601,5.255v0.025l0.656,0.305
		c0.123,0,0.272,0.321,0.397,0.321H688v-0.702l9.596-0.151c7.19-0.049,13.484-1.558,19.322-4.526
		c11.414,6.689,20.609,10.033,27.802,10.033c5.884,0,11.008-2.388,15.483-7.166c4.477-4.778,6.689-10.159,6.689-16.144
		C766.893,73.186,755.623,57.369,733.144,35.895z M717.075,82.137c-7.241-2.816-10.863-7.167-10.863-13.051
		c0-2.514,0.703-4.702,2.112-6.563c1.51-2.061,3.494-3.092,5.96-3.092c3.117,0,5.809,1.007,8.07,3.018
		c2.265,2.012,3.396,4.552,3.396,7.619C725.751,75.549,722.857,79.573,717.075,82.137z M743.704,92.699
		c-3.721,0-8.146-1.533-13.277-4.602c5.583-2.866,8.374-8.624,8.374-17.275c0-5.481-1.383-9.781-4.148-12.9
		c11.968,12.07,17.955,20.821,17.955,26.252C752.607,89.858,749.638,92.699,743.704,92.699z"/>
</g>
<rect x="585" y="36" fill="#F2F2F2" width="15" height="15"/>
<rect x="92" y="28" fill="#F2F2F2" width="15" height="15"/>
</svg>
